<svg width="578" height="419" viewBox="0 0 578 419" fill="none" xmlns="http://www.w3.org/2000/svg">
<g clip-path="url(#clip0_6_217)">
<path d="M336.684 73.8648C347.517 73.8648 356.299 65.112 356.299 54.3149C356.299 43.5177 347.517 34.7649 336.684 34.7649C325.851 34.7649 317.07 43.5177 317.07 54.3149C317.07 65.112 325.851 73.8648 336.684 73.8648Z" fill="#F2F2F2"/>
<path d="M488.839 364.008C517.994 341.875 531.919 304.683 523.202 269.203C522.985 268.322 522.756 267.442 522.516 266.564C516.736 245.504 502.438 225.488 481.598 218.759C464.1 213.109 445.001 217.454 426.746 215.207C390.911 210.796 363.129 181.897 343.581 151.639C324.033 121.381 309.009 87.5113 283.034 62.5138C240.217 21.3097 170.374 12.4384 117.288 39.2592C64.2019 66.0801 30.3867 125.584 31.8288 184.888C33.271 244.191 68.593 300.89 119.889 330.972C138.733 342.023 160.528 349.851 182.219 347.112C201.04 344.735 218.14 334.656 236.872 331.663C266.324 326.958 295.587 340.23 321.06 355.696C346.533 371.162 371.138 389.494 400.084 396.664C428.191 403.626 463.013 383.615 488.839 364.008Z" fill="#F2F2F2"/>
<path d="M446.951 40.5046C446.312 40.0799 445.666 39.6772 445.027 39.2672C426.552 27.4905 406.75 17.9233 386.031 10.7631L381.226 76.8211H350.77V1.12021C348.852 0.724827 346.92 0.351412 344.988 -3.8147e-05V76.8211H308.794C288.869 76.8211 269.76 68.9319 255.671 54.889C241.582 40.8462 233.667 21.8 233.667 1.94034C231.727 2.35769 229.803 2.80426 227.878 3.28018V76.8211H198.398L193.822 13.831C172.529 21.9702 152.315 32.6737 133.629 45.7031C133.305 45.9228 132.982 46.1498 132.666 46.3694C131.043 47.5043 129.441 48.6612 127.847 49.8327V301.844H214.729L213.193 280.647L204.745 164.266H374.872L366.424 280.647L364.889 301.844H450.808V43.0526C449.53 42.1886 448.244 41.3393 446.951 40.5046ZM227.878 145.046H203.35L198.817 82.5907H227.878V145.046ZM344.988 145.046H303.792V143.809C303.792 143.214 303.674 142.625 303.446 142.076C303.217 141.526 302.882 141.027 302.46 140.607C302.037 140.186 301.536 139.853 300.984 139.626C300.433 139.399 299.842 139.283 299.245 139.284H281.335C280.739 139.284 280.148 139.401 279.598 139.628C279.047 139.855 278.546 140.189 278.124 140.609C277.703 141.029 277.368 141.528 277.14 142.077C276.912 142.626 276.795 143.215 276.795 143.809V145.046H233.667V82.5907H344.988V145.046ZM350.77 145.046V82.5907H380.808L376.275 145.046H350.77Z" fill="#3F3D56"/>
<path d="M-3.05176e-05 317.982C6.38165 325.519 13.2842 332.602 20.657 339.179L557.343 339.911C564.716 333.334 571.618 326.251 578 318.714L-3.05176e-05 317.982Z" fill="#3F3D56"/>
<path d="M363.944 250.109V312.86C363.945 313.66 364.264 314.427 364.831 314.992C365.398 315.558 366.168 315.876 366.97 315.876H460.268C461.07 315.876 461.839 315.558 462.407 314.992C462.974 314.427 463.293 313.66 463.294 312.86V250.109C463.292 249.31 462.972 248.544 462.405 247.98C461.838 247.415 461.069 247.097 460.268 247.096H366.97C366.168 247.097 365.4 247.415 364.833 247.98C364.265 248.544 363.946 249.31 363.944 250.109Z" fill="#3F3D56"/>
<path d="M366.133 250.89V312.086C366.134 312.513 366.304 312.923 366.607 313.225C366.91 313.527 367.321 313.697 367.75 313.698H459.491C459.92 313.697 460.331 313.527 460.634 313.225C460.937 312.923 461.108 312.513 461.108 312.086V250.89C461.108 250.462 460.938 250.052 460.635 249.749C460.332 249.446 459.92 249.275 459.491 249.274H367.75C367.321 249.275 366.91 249.446 366.606 249.749C366.303 250.052 366.133 250.462 366.133 250.89Z" fill="#6C63FF"/>
<path d="M361.993 325.098C362.164 325.312 362.381 325.484 362.628 325.602C362.876 325.72 363.146 325.781 363.421 325.779H463.321C463.594 325.779 463.864 325.718 464.11 325.601C464.357 325.483 464.574 325.313 464.746 325.101C464.918 324.89 465.041 324.643 465.105 324.378C465.169 324.113 465.174 323.838 465.118 323.571L463.567 316.229C463.503 315.93 463.364 315.651 463.164 315.419C462.964 315.186 462.709 315.008 462.422 314.898C462.214 314.817 461.993 314.776 461.77 314.776H364.965C364.742 314.776 364.521 314.817 364.313 314.898C364.026 315.008 363.771 315.186 363.571 315.419C363.371 315.651 363.233 315.93 363.168 316.229L361.618 323.571C361.562 323.838 361.567 324.113 361.632 324.377C361.697 324.641 361.82 324.888 361.993 325.098Z" fill="#2F2E41"/>
<path d="M458.342 317.938H460.702C460.9 317.938 461.06 317.778 461.06 317.581V316.455C461.06 316.258 460.9 316.098 460.702 316.098H458.342C458.144 316.098 457.983 316.258 457.983 316.455V317.581C457.983 317.778 458.144 317.938 458.342 317.938Z" fill="#3F3D56"/>
<path d="M452.188 317.938H454.548C454.746 317.938 454.907 317.778 454.907 317.581V316.455C454.907 316.258 454.746 316.098 454.548 316.098H452.188C451.99 316.098 451.83 316.258 451.83 316.455V317.581C451.83 317.778 451.99 317.938 452.188 317.938Z" fill="#3F3D56"/>
<path d="M446.035 317.938H448.394C448.592 317.938 448.753 317.778 448.753 317.581V316.455C448.753 316.258 448.592 316.098 448.394 316.098H446.035C445.836 316.098 445.676 316.258 445.676 316.455V317.581C445.676 317.778 445.836 317.938 446.035 317.938Z" fill="#3F3D56"/>
<path d="M439.881 317.938H442.24C442.439 317.938 442.599 317.778 442.599 317.581V316.455C442.599 316.258 442.439 316.098 442.24 316.098H439.881C439.683 316.098 439.522 316.258 439.522 316.455V317.581C439.522 317.778 439.683 317.938 439.881 317.938Z" fill="#3F3D56"/>
<path d="M433.727 317.938H436.087C436.285 317.938 436.445 317.778 436.445 317.581V316.455C436.445 316.258 436.285 316.098 436.087 316.098H433.727C433.529 316.098 433.368 316.258 433.368 316.455V317.581C433.368 317.778 433.529 317.938 433.727 317.938Z" fill="#3F3D56"/>
<path d="M427.573 317.938H429.933C430.131 317.938 430.292 317.778 430.292 317.581V316.455C430.292 316.258 430.131 316.098 429.933 316.098H427.573C427.375 316.098 427.215 316.258 427.215 316.455V317.581C427.215 317.778 427.375 317.938 427.573 317.938Z" fill="#3F3D56"/>
<path d="M421.42 317.938H423.779C423.977 317.938 424.138 317.778 424.138 317.581V316.455C424.138 316.258 423.977 316.098 423.779 316.098H421.42C421.221 316.098 421.061 316.258 421.061 316.455V317.581C421.061 317.778 421.221 317.938 421.42 317.938Z" fill="#3F3D56"/>
<path d="M415.266 317.938H417.625C417.823 317.938 417.984 317.778 417.984 317.581V316.455C417.984 316.258 417.823 316.098 417.625 316.098H415.266C415.068 316.098 414.907 316.258 414.907 316.455V317.581C414.907 317.778 415.068 317.938 415.266 317.938Z" fill="#3F3D56"/>
<path d="M409.112 317.938H411.472C411.67 317.938 411.83 317.778 411.83 317.581V316.455C411.83 316.258 411.67 316.098 411.472 316.098H409.112C408.914 316.098 408.753 316.258 408.753 316.455V317.581C408.753 317.778 408.914 317.938 409.112 317.938Z" fill="#3F3D56"/>
<path d="M402.958 317.938H405.318C405.516 317.938 405.677 317.778 405.677 317.581V316.455C405.677 316.258 405.516 316.098 405.318 316.098H402.958C402.76 316.098 402.6 316.258 402.6 316.455V317.581C402.6 317.778 402.76 317.938 402.958 317.938Z" fill="#3F3D56"/>
<path d="M396.805 317.938H399.164C399.362 317.938 399.523 317.778 399.523 317.581V316.455C399.523 316.258 399.362 316.098 399.164 316.098H396.805C396.607 316.098 396.446 316.258 396.446 316.455V317.581C396.446 317.778 396.607 317.938 396.805 317.938Z" fill="#3F3D56"/>
<path d="M390.651 317.938H393.01C393.208 317.938 393.369 317.778 393.369 317.581V316.455C393.369 316.258 393.208 316.098 393.01 316.098H390.651C390.453 316.098 390.292 316.258 390.292 316.455V317.581C390.292 317.778 390.453 317.938 390.651 317.938Z" fill="#3F3D56"/>
<path d="M384.497 317.938H386.857C387.055 317.938 387.215 317.778 387.215 317.581V316.455C387.215 316.258 387.055 316.098 386.857 316.098H384.497C384.299 316.098 384.138 316.258 384.138 316.455V317.581C384.138 317.778 384.299 317.938 384.497 317.938Z" fill="#3F3D56"/>
<path d="M378.343 317.938H380.703C380.901 317.938 381.062 317.778 381.062 317.581V316.455C381.062 316.258 380.901 316.098 380.703 316.098H378.343C378.145 316.098 377.985 316.258 377.985 316.455V317.581C377.985 317.778 378.145 317.938 378.343 317.938Z" fill="#3F3D56"/>
<path d="M372.19 317.938H374.549C374.747 317.938 374.908 317.778 374.908 317.581V316.455C374.908 316.258 374.747 316.098 374.549 316.098H372.19C371.991 316.098 371.831 316.258 371.831 316.455V317.581C371.831 317.778 371.991 317.938 372.19 317.938Z" fill="#3F3D56"/>
<path d="M366.036 317.938H368.395C368.593 317.938 368.754 317.778 368.754 317.581V316.455C368.754 316.258 368.593 316.098 368.395 316.098H366.036C365.838 316.098 365.677 316.258 365.677 316.455V317.581C365.677 317.778 365.838 317.938 366.036 317.938Z" fill="#3F3D56"/>
<path d="M458.415 321.005H460.774C460.972 321.005 461.133 320.845 461.133 320.647V319.522C461.133 319.325 460.972 319.165 460.774 319.165H458.415C458.217 319.165 458.056 319.325 458.056 319.522V320.647C458.056 320.845 458.217 321.005 458.415 321.005Z" fill="#3F3D56"/>
<path d="M452.261 321.005H454.621C454.819 321.005 454.979 320.845 454.979 320.647V319.522C454.979 319.325 454.819 319.165 454.621 319.165H452.261C452.063 319.165 451.902 319.325 451.902 319.522V320.647C451.902 320.845 452.063 321.005 452.261 321.005Z" fill="#3F3D56"/>
<path d="M446.107 321.005H448.467C448.665 321.005 448.826 320.845 448.826 320.647V319.522C448.826 319.325 448.665 319.165 448.467 319.165H446.107C445.909 319.165 445.749 319.325 445.749 319.522V320.647C445.749 320.845 445.909 321.005 446.107 321.005Z" fill="#3F3D56"/>
<path d="M439.953 321.005H442.313C442.511 321.005 442.672 320.845 442.672 320.647V319.522C442.672 319.325 442.511 319.165 442.313 319.165H439.953C439.755 319.165 439.595 319.325 439.595 319.522V320.647C439.595 320.845 439.755 321.005 439.953 321.005Z" fill="#3F3D56"/>
<path d="M433.8 321.005H436.159C436.357 321.005 436.518 320.845 436.518 320.647V319.522C436.518 319.325 436.357 319.165 436.159 319.165H433.8C433.602 319.165 433.441 319.325 433.441 319.522V320.647C433.441 320.845 433.602 321.005 433.8 321.005Z" fill="#3F3D56"/>
<path d="M427.646 321.005H430.006C430.204 321.005 430.364 320.845 430.364 320.647V319.522C430.364 319.325 430.204 319.165 430.006 319.165H427.646C427.448 319.165 427.287 319.325 427.287 319.522V320.647C427.287 320.845 427.448 321.005 427.646 321.005Z" fill="#3F3D56"/>
<path d="M421.492 321.005H423.852C424.05 321.005 424.211 320.845 424.211 320.647V319.522C424.211 319.325 424.05 319.165 423.852 319.165H421.492C421.294 319.165 421.134 319.325 421.134 319.522V320.647C421.134 320.845 421.294 321.005 421.492 321.005Z" fill="#3F3D56"/>
<path d="M415.338 321.005H417.698C417.896 321.005 418.057 320.845 418.057 320.647V319.522C418.057 319.325 417.896 319.165 417.698 319.165H415.338C415.14 319.165 414.98 319.325 414.98 319.522V320.647C414.98 320.845 415.14 321.005 415.338 321.005Z" fill="#3F3D56"/>
<path d="M409.185 321.005H411.544C411.742 321.005 411.903 320.845 411.903 320.647V319.522C411.903 319.325 411.742 319.165 411.544 319.165H409.185C408.987 319.165 408.826 319.325 408.826 319.522V320.647C408.826 320.845 408.987 321.005 409.185 321.005Z" fill="#3F3D56"/>
<path d="M403.031 321.005H405.391C405.589 321.005 405.749 320.845 405.749 320.647V319.522C405.749 319.325 405.589 319.165 405.391 319.165H403.031C402.833 319.165 402.672 319.325 402.672 319.522V320.647C402.672 320.845 402.833 321.005 403.031 321.005Z" fill="#3F3D56"/>
<path d="M396.877 321.005H399.237C399.435 321.005 399.595 320.845 399.595 320.647V319.522C399.595 319.325 399.435 319.165 399.237 319.165H396.877C396.679 319.165 396.519 319.325 396.519 319.522V320.647C396.519 320.845 396.679 321.005 396.877 321.005Z" fill="#3F3D56"/>
<path d="M390.724 321.005H393.083C393.281 321.005 393.442 320.845 393.442 320.647V319.522C393.442 319.325 393.281 319.165 393.083 319.165H390.724C390.525 319.165 390.365 319.325 390.365 319.522V320.647C390.365 320.845 390.525 321.005 390.724 321.005Z" fill="#3F3D56"/>
<path d="M384.57 321.005H386.929C387.127 321.005 387.288 320.845 387.288 320.647V319.522C387.288 319.325 387.127 319.165 386.929 319.165H384.57C384.372 319.165 384.211 319.325 384.211 319.522V320.647C384.211 320.845 384.372 321.005 384.57 321.005Z" fill="#3F3D56"/>
<path d="M378.416 321.005H380.776C380.974 321.005 381.134 320.845 381.134 320.647V319.522C381.134 319.325 380.974 319.165 380.776 319.165H378.416C378.218 319.165 378.057 319.325 378.057 319.522V320.647C378.057 320.845 378.218 321.005 378.416 321.005Z" fill="#3F3D56"/>
<path d="M372.262 321.005H374.622C374.82 321.005 374.98 320.845 374.98 320.647V319.522C374.98 319.325 374.82 319.165 374.622 319.165H372.262C372.064 319.165 371.904 319.325 371.904 319.522V320.647C371.904 320.845 372.064 321.005 372.262 321.005Z" fill="#3F3D56"/>
<path d="M366.109 321.005H368.468C368.666 321.005 368.827 320.845 368.827 320.647V319.522C368.827 319.325 368.666 319.165 368.468 319.165H366.109C365.91 319.165 365.75 319.325 365.75 319.522V320.647C365.75 320.845 365.91 321.005 366.109 321.005Z" fill="#3F3D56"/>
<path d="M407.339 324.685H431.236C431.434 324.685 431.595 324.525 431.595 324.327V323.202C431.595 323.005 431.434 322.845 431.236 322.845H407.339C407.141 322.845 406.98 323.005 406.98 323.202V324.327C406.98 324.525 407.141 324.685 407.339 324.685Z" fill="#3F3D56"/>
<path d="M382.02 262.663H379.931C379.297 262.663 378.784 263.175 378.784 263.806C378.784 264.437 379.297 264.949 379.931 264.949H382.02C382.653 264.949 383.166 264.437 383.166 263.806C383.166 263.175 382.653 262.663 382.02 262.663Z" fill="white"/>
<path d="M405.911 262.663H403.822C403.189 262.663 402.675 263.175 402.675 263.806C402.675 264.437 403.189 264.949 403.822 264.949H405.911C406.545 264.949 407.058 264.437 407.058 263.806C407.058 263.175 406.545 262.663 405.911 262.663Z" fill="white"/>
<path d="M412.68 262.663H410.591C409.958 262.663 409.445 263.175 409.445 263.806C409.445 264.437 409.958 264.949 410.591 264.949H412.68C413.314 264.949 413.827 264.437 413.827 263.806C413.827 263.175 413.314 262.663 412.68 262.663Z" fill="white"/>
<path d="M399.413 262.472H386.429C385.796 262.472 385.282 262.984 385.282 263.615C385.282 264.247 385.796 264.758 386.429 264.758H399.413C400.046 264.758 400.559 264.247 400.559 263.615C400.559 262.984 400.046 262.472 399.413 262.472Z" fill="white"/>
<path d="M431.268 262.472H418.285C417.651 262.472 417.138 262.984 417.138 263.615C417.138 264.247 417.651 264.758 418.285 264.758H431.268C431.901 264.758 432.415 264.247 432.415 263.615C432.415 262.984 431.901 262.472 431.268 262.472Z" fill="white"/>
<path d="M388.391 267.822H386.302C385.668 267.822 385.155 268.334 385.155 268.965C385.155 269.597 385.668 270.108 386.302 270.108H388.391C389.024 270.108 389.538 269.597 389.538 268.965C389.538 268.334 389.024 267.822 388.391 267.822Z" fill="white"/>
<path d="M412.282 267.822H410.193C409.56 267.822 409.047 268.334 409.047 268.965C409.047 269.597 409.56 270.108 410.193 270.108H412.282C412.916 270.108 413.429 269.597 413.429 268.965C413.429 268.334 412.916 267.822 412.282 267.822Z" fill="white"/>
<path d="M419.052 267.822H416.963C416.329 267.822 415.816 268.334 415.816 268.965C415.816 269.597 416.329 270.108 416.963 270.108H419.052C419.685 270.108 420.198 269.597 420.198 268.965C420.198 268.334 419.685 267.822 419.052 267.822Z" fill="white"/>
<path d="M405.784 267.632H392.8C392.167 267.632 391.654 268.143 391.654 268.775C391.654 269.406 392.167 269.918 392.8 269.918H405.784C406.417 269.918 406.93 269.406 406.93 268.775C406.93 268.143 406.417 267.632 405.784 267.632Z" fill="white"/>
<path d="M437.639 267.632H424.656C424.022 267.632 423.509 268.143 423.509 268.775C423.509 269.406 424.022 269.918 424.656 269.918H437.639C438.272 269.918 438.786 269.406 438.786 268.775C438.786 268.143 438.272 267.632 437.639 267.632Z" fill="white"/>
<path d="M394.762 272.982H392.673C392.039 272.982 391.526 273.493 391.526 274.125C391.526 274.756 392.039 275.268 392.673 275.268H394.762C395.395 275.268 395.909 274.756 395.909 274.125C395.909 273.493 395.395 272.982 394.762 272.982Z" fill="white"/>
<path d="M418.653 272.982H416.564C415.931 272.982 415.418 273.493 415.418 274.125C415.418 274.756 415.931 275.268 416.564 275.268H418.653C419.287 275.268 419.8 274.756 419.8 274.125C419.8 273.493 419.287 272.982 418.653 272.982Z" fill="white"/>
<path d="M425.423 272.982H423.334C422.7 272.982 422.187 273.493 422.187 274.125C422.187 274.756 422.7 275.268 423.334 275.268H425.423C426.056 275.268 426.569 274.756 426.569 274.125C426.569 273.493 426.056 272.982 425.423 272.982Z" fill="white"/>
<path d="M412.155 272.791H399.171C398.538 272.791 398.025 273.303 398.025 273.934C398.025 274.565 398.538 275.077 399.171 275.077H412.155C412.788 275.077 413.302 274.565 413.302 273.934C413.302 273.303 412.788 272.791 412.155 272.791Z" fill="white"/>
<path d="M444.01 272.791H431.027C430.393 272.791 429.88 273.303 429.88 273.934C429.88 274.565 430.393 275.077 431.027 275.077H444.01C444.643 275.077 445.157 274.565 445.157 273.934C445.157 273.303 444.643 272.791 444.01 272.791Z" fill="white"/>
<path d="M401.133 278.141H399.044C398.411 278.141 397.897 278.653 397.897 279.284C397.897 279.915 398.411 280.427 399.044 280.427H401.133C401.766 280.427 402.28 279.915 402.28 279.284C402.28 278.653 401.766 278.141 401.133 278.141Z" fill="white"/>
<path d="M425.024 278.141H422.935C422.302 278.141 421.789 278.653 421.789 279.284C421.789 279.915 422.302 280.427 422.935 280.427H425.024C425.658 280.427 426.171 279.915 426.171 279.284C426.171 278.653 425.658 278.141 425.024 278.141Z" fill="white"/>
<path d="M431.794 278.141H429.705C429.071 278.141 428.558 278.653 428.558 279.284C428.558 279.915 429.071 280.427 429.705 280.427H431.794C432.427 280.427 432.94 279.915 432.94 279.284C432.94 278.653 432.427 278.141 431.794 278.141Z" fill="white"/>
<path d="M418.526 277.951H405.542C404.909 277.951 404.396 278.462 404.396 279.094C404.396 279.725 404.909 280.237 405.542 280.237H418.526C419.159 280.237 419.673 279.725 419.673 279.094C419.673 278.462 419.159 277.951 418.526 277.951Z" fill="white"/>
<path d="M405.911 298.657H403.822C403.189 298.657 402.675 299.169 402.675 299.8C402.675 300.432 403.189 300.943 403.822 300.943H405.911C406.545 300.943 407.058 300.432 407.058 299.8C407.058 299.169 406.545 298.657 405.911 298.657Z" fill="white"/>
<path d="M412.68 298.657H410.591C409.958 298.657 409.445 299.169 409.445 299.8C409.445 300.432 409.958 300.943 410.591 300.943H412.68C413.314 300.943 413.827 300.432 413.827 299.8C413.827 299.169 413.314 298.657 412.68 298.657Z" fill="white"/>
<path d="M431.268 298.848H418.285C417.651 298.848 417.138 299.36 417.138 299.991C417.138 300.622 417.651 301.134 418.285 301.134H431.268C431.901 301.134 432.415 300.622 432.415 299.991C432.415 299.36 431.901 298.848 431.268 298.848Z" fill="white"/>
<path d="M382.02 298.657H379.931C379.297 298.657 378.784 299.169 378.784 299.8C378.784 300.432 379.297 300.943 379.931 300.943H382.02C382.653 300.943 383.166 300.432 383.166 299.8C383.166 299.169 382.653 298.657 382.02 298.657Z" fill="white"/>
<path d="M399.413 298.848H386.429C385.796 298.848 385.282 299.36 385.282 299.991C385.282 300.622 385.796 301.134 386.429 301.134H399.413C400.046 301.134 400.559 300.622 400.559 299.991C400.559 299.36 400.046 298.848 399.413 298.848Z" fill="white"/>
<path d="M388.391 293.498H386.302C385.668 293.498 385.155 294.01 385.155 294.641C385.155 295.272 385.668 295.784 386.302 295.784H388.391C389.024 295.784 389.538 295.272 389.538 294.641C389.538 294.01 389.024 293.498 388.391 293.498Z" fill="white"/>
<path d="M412.282 293.498H410.193C409.56 293.498 409.047 294.01 409.047 294.641C409.047 295.272 409.56 295.784 410.193 295.784H412.282C412.916 295.784 413.429 295.272 413.429 294.641C413.429 294.01 412.916 293.498 412.282 293.498Z" fill="white"/>
<path d="M419.052 293.498H416.963C416.329 293.498 415.816 294.01 415.816 294.641C415.816 295.272 416.329 295.784 416.963 295.784H419.052C419.685 295.784 420.198 295.272 420.198 294.641C420.198 294.01 419.685 293.498 419.052 293.498Z" fill="white"/>
<path d="M405.784 293.689H392.8C392.167 293.689 391.654 294.2 391.654 294.832C391.654 295.463 392.167 295.975 392.8 295.975H405.784C406.417 295.975 406.93 295.463 406.93 294.832C406.93 294.2 406.417 293.689 405.784 293.689Z" fill="white"/>
<path d="M394.762 288.339H392.673C392.039 288.339 391.526 288.85 391.526 289.482C391.526 290.113 392.039 290.625 392.673 290.625H394.762C395.395 290.625 395.909 290.113 395.909 289.482C395.909 288.85 395.395 288.339 394.762 288.339Z" fill="white"/>
<path d="M418.653 288.339H416.564C415.931 288.339 415.418 288.85 415.418 289.482C415.418 290.113 415.931 290.625 416.564 290.625H418.653C419.287 290.625 419.8 290.113 419.8 289.482C419.8 288.85 419.287 288.339 418.653 288.339Z" fill="white"/>
<path d="M425.423 288.339H423.334C422.7 288.339 422.187 288.85 422.187 289.482C422.187 290.113 422.7 290.625 423.334 290.625H425.423C426.056 290.625 426.569 290.113 426.569 289.482C426.569 288.85 426.056 288.339 425.423 288.339Z" fill="white"/>
<path d="M412.155 288.529H399.171C398.538 288.529 398.025 289.041 398.025 289.672C398.025 290.303 398.538 290.815 399.171 290.815H412.155C412.788 290.815 413.302 290.303 413.302 289.672C413.302 289.041 412.788 288.529 412.155 288.529Z" fill="white"/>
<path d="M401.133 283.179H399.044C398.411 283.179 397.897 283.691 397.897 284.322C397.897 284.953 398.411 285.465 399.044 285.465H401.133C401.766 285.465 402.28 284.953 402.28 284.322C402.28 283.691 401.766 283.179 401.133 283.179Z" fill="white"/>
<path d="M425.024 283.179H422.935C422.302 283.179 421.789 283.691 421.789 284.322C421.789 284.953 422.302 285.465 422.935 285.465H425.024C425.658 285.465 426.171 284.953 426.171 284.322C426.171 283.691 425.658 283.179 425.024 283.179Z" fill="white"/>
<path d="M431.794 283.179H429.705C429.071 283.179 428.558 283.691 428.558 284.322C428.558 284.953 429.071 285.465 429.705 285.465H431.794C432.427 285.465 432.94 284.953 432.94 284.322C432.94 283.691 432.427 283.179 431.794 283.179Z" fill="white"/>
<path d="M418.526 283.37H405.542C404.909 283.37 404.396 283.881 404.396 284.513C404.396 285.144 404.909 285.656 405.542 285.656H418.526C419.159 285.656 419.673 285.144 419.673 284.513C419.673 283.881 419.159 283.37 418.526 283.37Z" fill="white"/>
<path d="M370.914 359.125L361.107 343.674L391.888 319.217L404.593 305.188C406.244 303.365 408.346 302.006 410.688 301.246C413.031 300.487 415.533 300.354 417.943 300.86C420.354 301.366 422.589 302.493 424.425 304.13C426.262 305.767 427.635 307.855 428.408 310.187C429.553 313.642 429.307 317.405 427.721 320.682C426.135 323.96 423.334 326.495 419.908 327.753L399.818 335.13L370.914 359.125Z" fill="#FFB6B6"/>
<path d="M140.816 247.099V322.192H193.597V247.099C193.598 246.559 193.425 246.033 193.104 245.598C192.783 245.163 192.33 244.842 191.812 244.683C191.568 244.603 191.312 244.563 191.055 244.566H143.365C143.031 244.565 142.7 244.63 142.39 244.757C142.081 244.884 141.8 245.071 141.564 245.306C141.327 245.541 141.139 245.821 141.011 246.128C140.882 246.436 140.816 246.766 140.816 247.099ZM161.414 272.902C161.428 271.421 162.028 270.006 163.083 268.964C164.138 267.922 165.563 267.337 167.049 267.337C168.534 267.337 169.959 267.922 171.014 268.964C172.07 270.006 172.669 271.421 172.683 272.902V281.615C172.675 283.099 172.078 284.52 171.023 285.567C169.967 286.614 168.538 287.202 167.049 287.202C165.559 287.202 164.13 286.614 163.075 285.567C162.019 284.52 161.422 283.099 161.414 281.615V272.902Z" fill="#2F2E41"/>
<path d="M140.654 319.791V327.032C140.656 327.407 140.805 327.767 141.071 328.033C141.336 328.299 141.696 328.45 142.072 328.453H192.341C192.718 328.451 193.078 328.3 193.344 328.034C193.61 327.768 193.759 327.408 193.759 327.032V319.791H140.654Z" fill="#3F3D56"/>
<path d="M57.7838 133.962V271.071C57.7852 272.818 58.4822 274.494 59.7218 275.729C60.9614 276.965 62.6422 277.659 64.3952 277.661H268.247C270.001 277.659 271.681 276.965 272.921 275.729C274.161 274.494 274.858 272.818 274.859 271.071V133.962C274.855 132.216 274.157 130.543 272.917 129.309C271.678 128.075 269.999 127.382 268.247 127.379H64.3952C62.6437 127.382 60.9645 128.076 59.7253 129.309C58.4861 130.543 57.788 132.216 57.7838 133.962Z" fill="#3F3D56"/>
<path d="M62.5661 135.668V269.38C62.5677 270.313 62.9405 271.208 63.6028 271.868C64.2651 272.528 65.1629 272.9 66.0995 272.902H266.551C267.487 272.9 268.385 272.528 269.047 271.868C269.71 271.208 270.082 270.313 270.084 269.38V135.668C270.084 134.733 269.712 133.836 269.049 133.175C268.387 132.513 267.488 132.141 266.551 132.138H66.0995C65.1618 132.141 64.2631 132.513 63.6007 133.175C62.9383 133.836 62.5662 134.733 62.5661 135.668Z" fill="white"/>
<path d="M99.7664 327.962C99.9704 328.217 100.23 328.423 100.525 328.563C100.82 328.704 101.143 328.776 101.471 328.775H220.726C221.052 328.774 221.374 328.702 221.668 328.561C221.963 328.421 222.222 328.218 222.428 327.965C222.633 327.713 222.779 327.418 222.856 327.102C222.933 326.786 222.938 326.457 222.871 326.139L221.02 317.375C220.943 317.017 220.778 316.685 220.539 316.407C220.301 316.13 219.996 315.916 219.654 315.786C219.405 315.689 219.141 315.639 218.875 315.639H103.315C103.048 315.639 102.784 315.689 102.536 315.786C102.193 315.916 101.889 316.13 101.65 316.407C101.411 316.685 101.246 317.017 101.169 317.375L99.3183 326.139C99.2524 326.457 99.2584 326.785 99.336 327.101C99.4135 327.416 99.5605 327.71 99.7664 327.962Z" fill="#2F2E41"/>
<path d="M260.045 150.558H72.4841C72.2891 150.554 72.1036 150.473 71.9673 150.334C71.8309 150.195 71.7546 150.009 71.7546 149.814C71.7546 149.62 71.8309 149.434 71.9673 149.295C72.1036 149.156 72.2891 149.075 72.4841 149.071H260.045C260.24 149.075 260.426 149.156 260.562 149.295C260.698 149.434 260.775 149.62 260.775 149.814C260.775 150.009 260.698 150.195 260.562 150.334C260.426 150.473 260.24 150.554 260.045 150.558Z" fill="#3F3D56"/>
<path d="M85.2516 145.275C87.6657 145.275 89.6228 143.281 89.6228 140.821C89.6228 138.362 87.6657 136.367 85.2516 136.367C82.8375 136.367 80.8804 138.362 80.8804 140.821C80.8804 143.281 82.8375 145.275 85.2516 145.275Z" fill="#3F3D56"/>
<path d="M100.352 145.275C102.766 145.275 104.723 143.281 104.723 140.821C104.723 138.362 102.766 136.367 100.352 136.367C97.9379 136.367 95.9809 138.362 95.9809 140.821C95.9809 143.281 97.9379 145.275 100.352 145.275Z" fill="#3F3D56"/>
<path d="M115.453 145.275C117.867 145.275 119.824 143.281 119.824 140.821C119.824 138.362 117.867 136.367 115.453 136.367C113.038 136.367 111.081 138.362 111.081 140.821C111.081 143.281 113.038 145.275 115.453 145.275Z" fill="#3F3D56"/>
<path d="M250.952 137.469H240.227C240.015 137.474 239.813 137.561 239.665 137.712C239.517 137.864 239.434 138.067 239.434 138.278C239.434 138.489 239.517 138.692 239.665 138.843C239.813 138.995 240.015 139.082 240.227 139.087H250.952C251.166 139.084 251.369 138.997 251.519 138.846C251.669 138.695 251.753 138.491 251.753 138.278C251.753 138.065 251.669 137.861 251.519 137.71C251.369 137.558 251.166 137.472 250.952 137.469Z" fill="#3F3D56"/>
<path d="M250.952 140.507H240.227C240.015 140.512 239.813 140.599 239.665 140.751C239.516 140.902 239.433 141.105 239.433 141.317C239.433 141.528 239.516 141.731 239.665 141.882C239.813 142.034 240.015 142.121 240.227 142.126H250.952C251.166 142.123 251.37 142.037 251.52 141.885C251.67 141.734 251.754 141.529 251.754 141.317C251.754 141.104 251.67 140.899 251.52 140.748C251.37 140.596 251.166 140.51 250.952 140.507Z" fill="#3F3D56"/>
<path d="M250.952 143.546H240.227C240.015 143.551 239.813 143.638 239.665 143.789C239.517 143.941 239.434 144.144 239.434 144.355C239.434 144.566 239.517 144.769 239.665 144.921C239.813 145.072 240.015 145.159 240.227 145.164H250.952C251.166 145.161 251.369 145.075 251.519 144.923C251.669 144.772 251.753 144.568 251.753 144.355C251.753 144.142 251.669 143.938 251.519 143.787C251.369 143.636 251.166 143.549 250.952 143.546Z" fill="#3F3D56"/>
<path d="M509.517 322.969C509.841 323.908 510.455 324.721 511.271 325.291C512.087 325.86 513.063 326.158 514.059 326.14L533.52 325.641C534.524 325.621 535.494 325.279 536.286 324.664C537.078 324.049 537.649 323.196 537.914 322.231L540.668 292.88C541.645 293.321 542.709 293.539 543.781 293.517C544.713 293.494 545.631 293.288 546.483 292.911C547.334 292.534 548.103 291.994 548.746 291.32C549.388 290.647 549.891 289.855 550.226 288.988C550.561 288.121 550.721 287.197 550.698 286.268C550.675 285.339 550.468 284.424 550.09 283.575C549.711 282.726 549.169 281.96 548.494 281.32C547.819 280.679 547.023 280.178 546.153 279.844C545.284 279.51 544.357 279.351 543.425 279.374C542.996 279.372 542.569 279.417 542.149 279.506C541.693 279.014 541.139 278.623 540.523 278.358C539.906 278.093 539.24 277.96 538.569 277.966L508.633 278.737C508.385 278.746 508.138 278.776 507.895 278.828C507.239 278.95 506.616 279.211 506.069 279.593C505.522 279.975 505.064 280.469 504.724 281.042C504.385 281.616 504.173 282.255 504.103 282.917C504.032 283.579 504.105 284.248 504.315 284.879L509.517 322.969ZM541.233 290.887L543.192 283.892C543.415 283.084 543.42 282.232 543.207 281.422C543.302 281.421 543.386 281.376 543.481 281.376C544.825 281.348 546.125 281.853 547.096 282.779C548.067 283.705 548.63 284.977 548.661 286.316C548.693 287.656 548.19 288.952 547.264 289.923C546.337 290.893 545.062 291.458 543.719 291.493C542.85 291.52 541.991 291.31 541.233 290.887Z" fill="#2F2E41"/>
<path d="M507.895 278.828C508.533 282.463 515.703 285.018 524.325 284.574C532.253 284.21 538.736 281.435 539.924 278.146C539.484 278.017 539.027 277.956 538.569 277.966L508.633 278.737C508.385 278.746 508.138 278.776 507.895 278.828Z" fill="#3F3D56"/>
<path d="M525.905 306.84C525.945 306.83 525.982 306.814 526.016 306.791L530.242 304.034C530.293 304.001 530.335 303.956 530.364 303.902C530.394 303.849 530.409 303.789 530.409 303.728C530.409 303.667 530.394 303.608 530.365 303.554C530.336 303.501 530.294 303.455 530.243 303.422L525.85 300.554C525.81 300.528 525.764 300.509 525.717 300.5C525.669 300.491 525.621 300.491 525.573 300.501C525.526 300.511 525.481 300.53 525.441 300.557C525.401 300.584 525.367 300.618 525.34 300.659C525.314 300.699 525.295 300.744 525.287 300.792C525.278 300.839 525.278 300.888 525.288 300.935C525.298 300.982 525.317 301.027 525.344 301.066C525.372 301.106 525.407 301.14 525.447 301.166L529.371 303.728L525.614 306.179C525.541 306.226 525.488 306.298 525.463 306.381C525.438 306.464 525.444 306.553 525.479 306.632C525.514 306.712 525.576 306.776 525.654 306.814C525.732 306.852 525.821 306.861 525.905 306.84Z" fill="#6C63FF"/>
<path d="M519.23 307.147C519.301 307.129 519.365 307.09 519.414 307.036C519.462 306.982 519.494 306.914 519.504 306.842C519.514 306.77 519.502 306.696 519.47 306.631C519.437 306.565 519.386 306.511 519.323 306.474L515.427 304.248L519.192 301.461C519.231 301.432 519.264 301.396 519.288 301.355C519.313 301.314 519.33 301.268 519.337 301.22C519.344 301.173 519.341 301.124 519.329 301.078C519.318 301.031 519.297 300.987 519.268 300.949C519.239 300.91 519.203 300.878 519.162 300.853C519.12 300.828 519.075 300.812 519.027 300.805C518.979 300.798 518.931 300.801 518.884 300.812C518.837 300.824 518.793 300.845 518.755 300.873L514.539 303.995C514.49 304.031 514.451 304.078 514.425 304.134C514.399 304.189 514.387 304.249 514.391 304.31C514.395 304.371 514.413 304.429 514.446 304.481C514.478 304.533 514.522 304.575 514.575 304.606L518.957 307.11C519.04 307.157 519.138 307.17 519.23 307.147Z" fill="#6C63FF"/>
<path d="M525.485 309.256C525.52 309.247 525.554 309.233 525.585 309.214C525.627 309.189 525.663 309.156 525.691 309.117C525.72 309.079 525.74 309.034 525.752 308.988C525.763 308.941 525.765 308.893 525.758 308.845C525.75 308.797 525.734 308.752 525.709 308.711L519.717 298.893C519.667 298.811 519.585 298.751 519.49 298.728C519.396 298.706 519.296 298.721 519.213 298.772C519.13 298.822 519.07 298.903 519.047 298.998C519.024 299.092 519.039 299.192 519.09 299.275L525.081 309.092C525.122 309.159 525.183 309.211 525.256 309.24C525.328 309.27 525.409 309.275 525.485 309.256Z" fill="#6C63FF"/>
<path d="M188.675 190.974H156.212C154.888 190.974 153.814 192.044 153.814 193.364V196.525C153.814 197.845 154.888 198.915 156.212 198.915H188.675C189.999 198.915 191.073 197.845 191.073 196.525V193.364C191.073 192.044 189.999 190.974 188.675 190.974Z" fill="#6C63FF"/>
<path d="M207.597 206.857H137.29C135.966 206.857 134.892 207.927 134.892 209.247V212.408C134.892 213.728 135.966 214.798 137.29 214.798H207.597C208.922 214.798 209.995 213.728 209.995 212.408V209.247C209.995 207.927 208.922 206.857 207.597 206.857Z" fill="#E6E6E6"/>
<path d="M207.597 222.739H137.29C135.966 222.739 134.892 223.809 134.892 225.129V228.29C134.892 229.61 135.966 230.68 137.29 230.68H207.597C208.922 230.68 209.995 229.61 209.995 228.29V225.129C209.995 223.809 208.922 222.739 207.597 222.739Z" fill="#E6E6E6"/>
<path d="M213.557 275.922L213.716 276.423L213.725 276.44L218.518 290.965L224.032 307.703L234.407 339.159L234.507 344.045V344.062L235.278 383.369L233.142 388.698L235.547 397.435C235.547 397.435 234.44 384.228 228.507 391.812C225.147 396.122 221.217 400.533 217.99 404.667C222.692 406.563 227.468 408.278 232.32 409.812C233.368 410.146 234.424 410.464 235.48 410.781C235.706 410.848 235.932 410.915 236.158 410.982C252.242 415.722 268.87 418.386 285.635 418.908C286.506 418.933 287.361 418.95 288.19 418.967C288.484 418.975 288.769 418.983 289.054 418.983C289.992 418.992 290.922 419 291.861 419C293.755 419 295.64 418.972 297.518 418.917C311.411 418.526 325.224 416.664 338.722 413.362C338.63 407.808 338.379 401.318 338.019 394.385C337.851 390.986 334.088 387.302 333.862 383.744C333.703 381.071 337.08 378.557 336.904 375.842C335.764 359.129 334.34 365.545 333.284 353.709C333.175 352.548 333.074 351.437 332.982 350.377C332.303 342.776 331.834 338.023 331.834 338.023L336.343 309.7L343.424 265.231L342.879 264.337L342.267 264.036L304.917 245.61L302.889 240.432C302.298 238.94 301.273 237.658 299.945 236.752C298.618 235.845 297.048 235.355 295.439 235.345L270.835 235.245C269.558 235.239 268.299 235.537 267.16 236.114C266.022 236.69 265.038 237.529 264.29 238.561L257.628 247.757L213.557 275.922Z" fill="#3F3D56"/>
<path d="M240.08 332.16L234.507 344.045L230.703 352.164L224.158 386.318L220.881 389.784L218.074 377.513L188.692 384.015C187.728 378.678 188.434 384.196 187.839 378.341C188.006 378.174 188.182 378.007 188.358 377.84C188.828 377.405 189.221 376.996 189.213 376.604C188.878 356.407 189.883 322.036 198.28 301.213C199.595 297.814 201.329 294.59 203.442 291.616C203.61 291.391 203.769 291.165 203.928 290.94C207.8 285.536 210.247 280.215 213.716 276.431V276.423C213.738 276.406 213.758 276.386 213.775 276.365C213.788 276.358 213.799 276.35 213.809 276.339L237.642 263.744L238.664 292.376L239.393 312.957L240.08 332.16Z" fill="#3F3D56"/>
<path d="M326.018 335.535L332.979 350.381L335.408 355.55L341.951 389.701L345.217 393.159L348.031 380.891L349.353 380.62L373.197 375.698L380.147 397.698C381.713 395.097 382.331 392.036 381.894 389.033C381.458 386.031 379.994 383.271 377.751 381.22C377.277 380.792 376.881 380.375 376.893 379.981C377.288 356.226 375.83 312.851 362.665 294.999C358.484 289.333 355.975 283.69 352.325 279.748C352.314 279.737 352.314 279.726 352.303 279.726L343.42 265.23L342.878 264.34L342.268 264.036L326.018 335.535Z" fill="#3F3D56"/>
<path d="M283.848 228.266C301.926 228.266 316.58 213.659 316.58 195.641C316.58 177.623 301.926 163.016 283.848 163.016C265.77 163.016 251.115 177.623 251.115 195.641C251.115 213.659 265.77 228.266 283.848 228.266Z" fill="#FFB6B6"/>
<path d="M328.09 172.852C327.836 172.582 327.53 172.366 327.191 172.216C326.851 172.066 326.485 171.987 326.114 171.981L326.606 170.619C326.767 170.19 326.81 169.727 326.732 169.275C326.653 168.824 326.456 168.402 326.16 168.052C325.864 167.702 325.48 167.436 325.047 167.283C324.614 167.129 324.148 167.093 323.697 167.178L321.905 167.522L322.073 166.329C322.138 165.884 322.086 165.431 321.921 165.012C321.757 164.594 321.486 164.226 321.135 163.944C320.785 163.661 320.367 163.475 319.922 163.403C319.477 163.331 319.021 163.375 318.599 163.532C318.215 163.682 317.801 163.746 317.39 163.716C316.978 163.687 316.578 163.567 316.219 163.363C315.858 163.166 315.545 162.893 315.302 162.563C315.058 162.233 314.89 161.854 314.808 161.452L314.184 158.45L314.118 158.289C311.076 153.237 305.229 149.562 298.074 148.214C291.705 147.006 285.174 147.621 278.879 148.2C276.381 148.434 273.56 148.698 271.21 150.133C269.211 151.363 267.522 153.823 267.867 156.305C261.66 154.409 255.004 158.194 251.706 162.968C247.798 168.65 247.159 175.767 247.056 181.331C246.777 194.496 249.502 205.266 255.136 213.35C255.548 213.935 255.651 215.158 256.466 215.568L256.297 215.297C257.208 215.751 258.134 216.483 257.788 217.267C256.797 219.522 263.386 224.508 268.029 226.156C276.499 229.165 287.76 228.909 295.679 227.825L295.958 225.958C298.816 225.57 300.829 224.83 301.394 223.674C302.393 222.824 303.246 222.063 303.988 221.36L303.995 221.353C304.01 221.338 304.039 221.316 304.054 221.301C307.631 217.882 308.461 215.934 308.836 212.969C309.196 210.062 308.557 207.112 307.903 204.454C321.669 206.577 302.482 189.839 315.308 186.603C315.455 186.558 315.604 186.521 315.756 186.493C316.13 186.405 316.505 186.317 316.865 186.215C318.6 185.745 320.262 185.038 321.802 184.114C325.387 181.939 326.569 179.054 328.42 175.803C328.688 175.34 328.8 174.805 328.74 174.274C328.681 173.743 328.453 173.245 328.09 172.852Z" fill="#2F2E41"/>
<path d="M399.618 337.858C399.611 339.14 399.596 340.933 399.537 343.152C399.53 343.459 399.523 343.774 399.515 344.096C399.42 348.175 399.324 351.594 399.17 355.394C399.163 355.658 399.155 355.914 399.141 356.178C398.935 361.479 398.612 367.651 398.053 377.426C397.018 395.481 395.211 379.908 393.396 386.241C393.308 386.556 393.212 386.929 393.124 387.369C392.849 388.963 392.386 390.518 391.743 392.004C390.781 392.575 389.789 393.124 388.812 393.673C386.028 395.218 383.2 396.704 380.35 398.117C378.748 398.908 377.139 399.684 375.523 400.431C375.266 400.548 375.016 400.665 374.767 400.775C366.491 404.591 357.961 407.834 349.239 410.484C347.535 410.996 345.838 411.494 344.119 411.956C342.327 412.454 340.534 412.922 338.72 413.361C325.221 416.664 311.409 418.527 297.516 418.919C295.643 418.977 293.755 418.999 291.859 418.999C290.919 418.999 289.993 418.992 289.053 418.985C288.767 418.985 288.48 418.977 288.194 418.97C287.364 418.948 286.504 418.933 285.637 418.911C268.873 418.39 252.245 415.725 236.162 410.982L235.479 410.784C234.421 410.462 233.37 410.147 232.32 409.81C227.471 408.28 222.694 406.567 217.988 404.67C214.395 403.228 210.845 401.681 207.336 400.028C207.304 400.02 207.274 400.005 207.248 399.984C206.513 399.648 205.771 399.296 205.037 398.937C204.941 398.886 204.838 398.835 204.735 398.784C201.995 397.451 199.285 396.055 196.603 394.595C194.348 389.434 191.175 388.445 189.206 383.906C188.633 382.557 188.219 381.147 187.972 379.703C187.972 379.688 187.964 379.673 187.964 379.651C188.17 382.375 187.09 374.819 187.957 379.622C187.95 379.534 187.942 379.439 187.935 379.329C187.913 379.066 187.884 378.744 187.84 378.341C185.32 353.82 185.482 325.777 184.387 302.669C184.314 301.176 184.238 299.745 184.159 298.379C184.137 297.925 184.108 297.478 184.078 297.039C184.13 296.907 184.189 296.768 184.255 296.636C184.269 296.598 184.286 296.561 184.306 296.526C184.328 296.481 184.352 296.437 184.38 296.394C184.394 296.373 184.416 296.343 184.431 296.321C184.442 296.296 184.454 296.272 184.468 296.248C184.534 296.146 184.607 296.036 184.688 295.933C184.725 295.889 184.754 295.853 184.791 295.816C184.816 295.779 184.846 295.744 184.879 295.714C184.902 295.678 184.929 295.646 184.96 295.618C184.989 295.589 185.019 295.552 185.055 295.516C185.071 295.493 185.091 295.473 185.114 295.457C185.172 295.391 185.236 295.33 185.305 295.274C185.567 295.034 185.847 294.814 186.143 294.615C186.245 294.549 186.356 294.484 186.459 294.41C187.199 293.969 187.978 293.596 188.787 293.297C189.066 293.195 189.346 293.1 189.647 292.997C189.757 292.968 189.86 292.931 189.97 292.895C190.132 292.843 190.293 292.792 190.462 292.756C191.3 292.507 192.203 292.294 193.18 292.097C193.298 292.075 193.423 292.053 193.547 292.023C193.724 291.987 193.907 291.957 194.091 291.928C194.341 291.884 194.598 291.84 194.855 291.796C197.037 291.452 199.512 291.196 202.245 291.028C202.502 291.013 202.759 290.998 203.016 290.984C203.318 290.969 203.619 290.954 203.927 290.94C204.184 290.925 204.449 290.918 204.713 290.91C204.971 290.896 205.235 290.888 205.507 290.881C206.249 290.859 207.013 290.837 207.791 290.823C210.01 290.779 212.346 290.793 214.8 290.845C215.938 290.874 217.099 290.903 218.289 290.954C218.37 290.954 218.443 290.962 218.517 290.962C219.552 290.998 220.596 291.042 221.668 291.101C222.417 291.137 223.174 291.174 223.931 291.218C224.643 291.262 225.363 291.306 226.09 291.357C226.656 291.386 227.222 291.43 227.795 291.467C228.279 291.503 228.764 291.54 229.249 291.569L229.91 291.613C230.27 291.643 230.63 291.665 230.997 291.701C231.806 291.767 232.614 291.833 233.436 291.899C234.252 291.972 235.082 292.045 235.912 292.119C236.742 292.192 237.579 292.272 238.417 292.353C238.505 292.36 238.586 292.367 238.667 292.375C239.431 292.455 240.195 292.529 240.966 292.609C241.142 292.624 241.326 292.638 241.502 292.66C242.238 292.734 242.987 292.82 243.73 292.899C243.957 292.923 244.184 292.947 244.412 292.972C244.994 293.035 245.567 293.09 246.152 293.158C246.924 293.246 247.71 293.327 248.474 293.429C249.069 293.495 249.664 293.561 250.259 293.634C251.192 293.744 252.139 293.861 253.087 293.986C253.447 294.03 253.807 294.073 254.167 294.125C256.87 294.462 259.603 294.835 262.38 295.223C266.589 295.816 270.864 296.46 275.169 297.156C279.481 297.852 283.818 298.586 288.179 299.36C289.281 299.558 290.383 299.755 291.492 299.96C291.991 300.055 292.491 300.151 292.991 300.246C293.843 300.4 294.695 300.561 295.547 300.722C296.399 300.883 297.251 301.044 298.103 301.212C299.117 301.41 300.138 301.608 301.152 301.805C307.829 303.123 314.47 304.529 320.949 306.001C322.015 306.242 323.08 306.491 324.138 306.733C326.253 307.224 328.349 307.721 330.426 308.227C330.999 308.358 331.565 308.498 332.13 308.637C333.541 308.988 334.951 309.34 336.339 309.698L336.582 309.764C337.603 310.013 338.602 310.269 339.601 310.533C341.959 311.148 344.278 311.77 346.558 312.4C348.071 312.817 349.567 313.24 351.046 313.667C353.257 314.304 355.424 314.948 357.533 315.6C358.054 315.761 358.576 315.922 359.09 316.076C360.633 316.552 362.153 317.035 363.63 317.518C364.805 317.899 365.951 318.287 367.083 318.675C368.214 319.063 369.323 319.451 370.41 319.839C371.108 320.088 371.799 320.352 372.489 320.601C373.481 320.967 374.458 321.333 375.413 321.699C375.707 321.809 375.993 321.926 376.28 322.036C376.463 322.116 376.64 322.182 376.816 322.255C377.161 322.394 377.514 322.526 377.852 322.665C378.197 322.797 378.535 322.936 378.873 323.083C379.203 323.214 379.541 323.354 379.865 323.493C380.195 323.624 380.518 323.764 380.842 323.91C381.113 324.02 381.378 324.137 381.635 324.254C382.157 324.481 382.678 324.708 383.185 324.942C383.435 325.06 383.685 325.169 383.934 325.287L384.507 325.55C384.588 325.594 384.669 325.631 384.75 325.667C384.933 325.755 385.124 325.85 385.308 325.938C385.734 326.136 386.153 326.348 386.564 326.546C387.115 326.824 387.651 327.102 388.166 327.373C388.687 327.652 389.194 327.93 389.679 328.201C389.76 328.245 389.833 328.289 389.914 328.332C390.024 328.391 390.134 328.457 390.245 328.516C390.619 328.728 390.979 328.948 391.339 329.16C392.044 329.592 392.713 330.016 393.337 330.441C393.477 330.536 393.609 330.631 393.749 330.719C394.211 331.049 394.652 331.371 395.064 331.7C395.064 331.708 395.064 331.708 395.071 331.708C395.21 331.81 395.343 331.92 395.475 332.023C395.585 332.125 395.703 332.213 395.813 332.316C396.195 332.645 396.547 332.96 396.871 333.282C396.979 333.381 397.082 333.487 397.179 333.597C397.222 333.632 397.261 333.671 397.297 333.714C397.444 333.86 397.576 334.007 397.701 334.153C397.72 334.173 397.737 334.196 397.752 334.219C397.928 334.424 398.09 334.629 398.244 334.834C398.318 334.937 398.399 335.039 398.465 335.142C398.553 335.266 398.641 335.398 398.715 335.523C398.781 335.625 398.839 335.735 398.898 335.837C399.054 336.101 399.187 336.378 399.295 336.665C399.377 336.859 399.444 337.06 399.493 337.265C399.549 337.46 399.591 337.658 399.618 337.858Z" fill="#2F2E41"/>
<path opacity="0.2" d="M399.618 337.858C399.611 339.14 399.596 340.933 399.537 343.152C399.53 343.46 399.515 343.774 399.508 344.097C399.434 347.208 399.324 351.052 399.17 355.394C399.163 355.658 399.155 355.914 399.141 356.178C398.935 361.479 398.612 367.651 398.053 377.426C397.018 395.481 395.21 379.908 393.396 386.241C388.357 383.151 382.832 379.915 376.926 376.591C375.861 375.991 374.786 375.388 373.701 374.783C361.889 368.215 348.695 361.332 334.922 354.516C334.378 354.245 333.827 353.974 333.284 353.71C301.732 338.166 267.294 323.046 239.394 312.957C234.009 311.009 228.867 309.252 224.033 307.707C213.852 304.463 205.051 302.193 198.278 301.212C191.226 300.187 186.356 300.553 184.387 302.669C184.313 301.176 184.238 299.745 184.159 298.379C184.13 297.925 184.1 297.478 184.071 297.039C184.116 296.918 184.175 296.803 184.232 296.687C184.24 296.67 184.246 296.653 184.255 296.636C184.269 296.598 184.286 296.561 184.306 296.526C184.328 296.481 184.352 296.437 184.38 296.394C184.403 296.343 184.433 296.293 184.468 296.248C184.534 296.146 184.607 296.036 184.688 295.933C184.748 295.856 184.811 295.783 184.879 295.713C184.902 295.678 184.929 295.646 184.96 295.618C184.989 295.589 185.019 295.552 185.055 295.516C185.071 295.493 185.091 295.473 185.114 295.457C185.172 295.391 185.236 295.329 185.305 295.274C185.567 295.034 185.847 294.814 186.143 294.615C186.245 294.549 186.356 294.483 186.459 294.41C187.199 293.969 187.978 293.596 188.787 293.297C189.066 293.195 189.345 293.1 189.647 292.997C189.757 292.968 189.86 292.931 189.97 292.895C190.132 292.843 190.293 292.792 190.462 292.756C191.3 292.507 192.203 292.294 193.18 292.097C193.474 292.038 193.783 291.979 194.091 291.928C194.341 291.884 194.598 291.84 194.855 291.796C197.037 291.452 199.512 291.196 202.245 291.028C202.502 291.013 202.759 290.998 203.016 290.984C203.318 290.969 203.619 290.954 203.927 290.94C204.184 290.925 204.449 290.918 204.713 290.91C204.97 290.896 205.235 290.888 205.507 290.881C206.249 290.859 207.013 290.837 207.791 290.823C210.01 290.786 212.346 290.801 214.799 290.852C215.938 290.874 217.099 290.91 218.289 290.962C218.362 290.962 218.443 290.969 218.517 290.969C219.552 290.998 220.603 291.05 221.668 291.101C222.417 291.137 223.174 291.174 223.931 291.218C224.643 291.262 225.363 291.306 226.09 291.357C226.656 291.386 227.222 291.43 227.795 291.467C228.279 291.503 228.764 291.54 229.249 291.569C229.829 291.613 230.41 291.657 230.997 291.701C231.806 291.767 232.614 291.833 233.436 291.899C234.252 291.972 235.082 292.045 235.912 292.118C236.742 292.192 237.579 292.272 238.417 292.353C238.505 292.36 238.586 292.367 238.667 292.375C239.431 292.455 240.195 292.529 240.966 292.609C245.241 293.041 249.642 293.546 254.167 294.125C256.87 294.469 259.608 294.837 262.38 295.23C266.589 295.823 270.864 296.468 275.169 297.156C279.481 297.852 283.818 298.586 288.179 299.36C289.281 299.558 290.383 299.755 291.492 299.96C292.844 300.209 294.195 300.463 295.547 300.722C296.399 300.883 297.251 301.044 298.103 301.212C299.117 301.41 300.138 301.608 301.152 301.805C307.83 303.123 314.47 304.529 320.95 306.001C322.015 306.242 323.08 306.491 324.138 306.733C326.253 307.224 328.349 307.721 330.426 308.227C330.999 308.366 331.565 308.505 332.13 308.644C333.548 308.995 334.951 309.347 336.339 309.698V309.706C336.42 309.72 336.501 309.742 336.582 309.764C337.596 310.02 338.602 310.277 339.601 310.54C341.959 311.155 344.278 311.775 346.558 312.4C348.071 312.825 349.57 313.242 351.046 313.667C353.257 314.311 355.424 314.955 357.533 315.6C358.054 315.761 358.576 315.922 359.09 316.076C360.633 316.559 362.146 317.04 363.63 317.518C364.805 317.899 365.951 318.287 367.083 318.675C368.214 319.063 369.323 319.451 370.41 319.839C371.116 320.088 371.806 320.344 372.489 320.593C373.488 320.959 374.458 321.325 375.413 321.699C375.707 321.809 375.993 321.926 376.28 322.036C376.816 322.241 377.338 322.453 377.852 322.665C378.197 322.797 378.535 322.936 378.873 323.083C379.203 323.215 379.541 323.354 379.865 323.493C380.195 323.625 380.518 323.764 380.842 323.91C381.113 324.02 381.378 324.137 381.635 324.254C382.157 324.481 382.678 324.708 383.185 324.942C383.435 325.06 383.685 325.169 383.934 325.287L384.507 325.55C384.588 325.594 384.669 325.631 384.75 325.667C385.374 325.96 385.977 326.253 386.564 326.546C387.115 326.824 387.651 327.102 388.166 327.373C388.775 327.695 389.356 328.01 389.914 328.332C390.024 328.391 390.134 328.457 390.245 328.516C390.619 328.728 390.979 328.948 391.339 329.16C392.044 329.592 392.713 330.016 393.337 330.441C393.954 330.866 394.527 331.283 395.064 331.701C395.064 331.708 395.064 331.708 395.071 331.708C395.328 331.913 395.578 332.118 395.813 332.316C396.195 332.645 396.547 332.96 396.871 333.282C396.979 333.381 397.082 333.487 397.179 333.597C397.222 333.632 397.261 333.671 397.297 333.714C397.451 333.882 397.605 334.051 397.752 334.219C397.929 334.424 398.09 334.629 398.244 334.834C398.318 334.937 398.399 335.039 398.465 335.142C398.553 335.266 398.641 335.398 398.715 335.523C398.781 335.625 398.839 335.735 398.898 335.837C399.054 336.101 399.187 336.378 399.295 336.665C399.375 336.86 399.442 337.061 399.493 337.265C399.549 337.46 399.591 337.658 399.618 337.858Z" fill="black"/>
</g>
<defs>
<clipPath id="clip0_6_217">
<rect width="578" height="419" fill="white"/>
</clipPath>
</defs>
</svg>
